<svg xmlns="http://www.w3.org/2000/svg" viewBox="0 0 128 128">
  <rect width="128" height="128" rx="18" fill="#0f1724"/>
  <!-- head silhouette -->
  <g transform="translate(18,14)">
    <path d="M66 12c-12-0.5-26 5-34 15-6 7-8 17-8 27 0 12 3 22 8 28 6 7 15 11 26 11 6 0 11-1 15-3 3-1 6-1 9-1 4 0 8 1 12 1 2 0 3-1 4-3 1-1 1-3 0-4-2-5-2-11-2-17 0-7 1-14 1-20 0-13-4-25-13-34C80 16 74 13 66 12z" fill="#dbeafe"/>
  </g>
  <!-- gear -->
  <g transform="translate(72,6)">
    <circle cx="16" cy="16" r="14" fill="#1f2937"/>
    <path d="M16 9v4l3 1-3 1v4l-3-1-3 1v-4l-3-1 3-1V9l3 1 3-1z" fill="#9ca3af" transform="translate(4,4) scale(0.9)"/>
  </g>
  <!-- speech bubbles -->
  <g transform="translate(6,14)">
    <rect x="6" y="6" width="34" height="20" rx="4" fill="#bbf7d0"/>
    <rect x="8" y="30" width="28" height="16" rx="4" fill="#ffd6a5"/>
  </g>
</svg>